<svg xmlns="http://www.w3.org/2000/svg" version="1.1" xmlns:xlink="http://www.w3.org/1999/xlink" xmlns:svgjs="http://svgjs.dev/svgjs" width="2000" height="444" viewBox="0 0 2000 444"><g transform="matrix(1,0,0,1,-1.2121212121212466,-1.7308712580190218)"><svg viewBox="0 0 396 88" data-background-color="#f8f8f8" preserveAspectRatio="xMidYMid meet" height="444" width="2000" xmlns="http://www.w3.org/2000/svg" xmlns:xlink="http://www.w3.org/1999/xlink"><g id="tight-bounds" transform="matrix(1,0,0,1,0.2400000000000091,0.34305556465241693)"><svg viewBox="0 0 395.52 87.31388887069518" height="87.31388887069518" width="395.52"><g><svg viewBox="0 0 520.8781377258085 114.9876007093596" height="87.31388887069518" width="395.52"><g transform="matrix(1,0,0,1,125.35813772580859,35.53283765235749)"><svg viewBox="0 0 395.5199999999999 43.92192540464461" height="43.92192540464461" width="395.5199999999999"><g id="textblocktransform"><svg viewBox="0 0 395.5199999999999 43.92192540464461" height="43.92192540464461" width="395.5199999999999" id="textblock"><g><svg viewBox="0 0 395.5199999999999 43.92192540464461" height="43.92192540464461" width="395.5199999999999"><g transform="matrix(1,0,0,1,0,0)"><svg width="395.5199999999999" viewBox="0.9 -35.85 355.22 39.45" height="43.92192540464461" data-palette-color="#61777f"><path d="M0.9 3.6L0.9 3.6 0.9 0.05Q2.55 0.05 3.65-0.1 4.75-0.25 5.35-0.78 5.95-1.3 6.2-2.4 6.45-3.5 6.45-5.35L6.45-5.35 6.45-34.55 10.45-34.55 10.45-4.8Q10.45-2 9.9-0.33 9.35 1.35 8.18 2.2 7 3.05 5.2 3.33 3.4 3.6 0.9 3.6ZM23.5 0.5L23.5 0.5Q20.05 0.5 18.25-1.45 16.45-3.4 16.45-7.15L16.45-7.15Q16.45-9.6 17.3-11.15 18.15-12.7 19.87-13.53 21.6-14.35 24.15-14.55L24.15-14.55 31.85-15.3 31.85-17.45Q31.85-20 30.72-21.05 29.6-22.1 27.4-22.1L27.4-22.1Q26.15-22.1 24.42-22 22.7-21.9 21-21.75 19.3-21.6 18-21.45L18-21.45 17.8-24.4Q19-24.65 20.7-24.9 22.4-25.15 24.25-25.33 26.1-25.5 27.65-25.5L27.65-25.5Q30.5-25.5 32.3-24.63 34.1-23.75 34.92-21.98 35.75-20.2 35.75-17.45L35.75-17.45 35.75-4.8Q35.85-3.7 36.62-3.2 37.4-2.7 38.6-2.55L38.6-2.55 38.45 0.5Q37.75 0.5 37.1 0.45 36.45 0.4 35.87 0.28 35.3 0.15 34.75 0L34.75 0Q34.1-0.25 33.52-0.6 32.95-0.95 32.4-1.45L32.4-1.45Q31.45-1.05 29.97-0.6 28.5-0.15 26.82 0.18 25.15 0.5 23.5 0.5ZM24.15-2.75L24.15-2.75Q25.5-2.75 26.95-3 28.4-3.25 29.7-3.6 31-3.95 31.85-4.25L31.85-4.25 31.85-12.4 24.6-11.7Q22.35-11.5 21.37-10.4 20.4-9.3 20.4-7.25L20.4-7.25Q20.4-5.15 21.35-3.95 22.3-2.75 24.15-2.75ZM47 0L43.15 0 43.15-25 47-25 47-23.25Q47.84-23.75 49.12-24.25 50.4-24.75 51.84-25.13 53.3-25.5 54.65-25.5L54.65-25.5Q57.25-25.5 58.9-24.83 60.55-24.15 61.47-22.68 62.4-21.2 62.77-18.88 63.15-16.55 63.15-13.25L63.15-13.25 63.15 0 59.25 0 59.25-13.1Q59.25-16.35 58.87-18.3 58.5-20.25 57.37-21.13 56.25-22 53.95-22L53.95-22Q52.7-22 51.37-21.73 50.05-21.45 48.9-21.03 47.75-20.6 47-20.2L47-20.2 47 0ZM85.64 0L81.64 0 81.64-34.55 94.49-34.55Q98.14-34.55 100.62-33.45 103.09-32.35 104.34-30.03 105.59-27.7 105.59-24.05L105.59-24.05Q105.59-20.25 104.07-17.65 102.54-15.05 99.29-14L99.29-14 105.89 0 101.44 0 95.34-13.15 85.64-13.15 85.64 0ZM85.64-31.05L85.64-16.65 94.54-16.65Q97.09-16.65 98.62-17.6 100.14-18.55 100.79-20.23 101.44-21.9 101.44-24L101.44-24Q101.44-27.55 99.74-29.3 98.04-31.05 94.49-31.05L94.49-31.05 85.64-31.05ZM120.69 0.5L120.69 0.5Q116.94 0.5 114.76-0.95 112.59-2.4 111.64-5.25 110.69-8.1 110.69-12.35L110.69-12.35Q110.69-17.1 111.99-19.98 113.29-22.85 115.64-24.18 117.99-25.5 121.19-25.5L121.19-25.5Q126.19-25.5 128.74-22.73 131.29-19.95 131.29-13.8L131.29-13.8 131.09-10.85 114.64-10.85Q114.69-6.95 116.09-4.95 117.49-2.95 121.14-2.95L121.14-2.95Q122.54-2.95 124.21-3.03 125.89-3.1 127.54-3.2 129.19-3.3 130.34-3.4L130.34-3.4 130.44-0.35Q129.24-0.15 127.51 0.05 125.79 0.25 123.99 0.38 122.19 0.5 120.69 0.5ZM114.64-14L114.64-14 127.39-14Q127.39-18.6 125.91-20.43 124.44-22.25 121.19-22.25L121.19-22.25Q119.09-22.25 117.64-21.43 116.19-20.6 115.41-18.8 114.64-17 114.64-14ZM140.94 0L137.09 0 137.09-25 140.94-25 140.94-23.25Q141.74-23.75 142.94-24.25 144.14-24.75 145.51-25.13 146.89-25.5 148.14-25.5L148.14-25.5Q150.64-25.5 152.16-24.9 153.69-24.3 154.64-22.95L154.64-22.95Q155.64-23.5 157.09-24.1 158.54-24.7 160.21-25.1 161.89-25.5 163.49-25.5L163.49-25.5Q166.04-25.5 167.69-24.85 169.34-24.2 170.26-22.75 171.19-21.3 171.56-18.98 171.94-16.65 171.94-13.25L171.94-13.25 171.94 0 168.09 0 168.09-13.1Q168.09-16.35 167.71-18.3 167.34-20.25 166.24-21.13 165.14-22 162.89-22L162.89-22Q161.59-22 160.26-21.73 158.94-21.45 157.81-21.03 156.69-20.6 155.99-20.2L155.99-20.2Q156.34-18.9 156.46-16.98 156.59-15.05 156.59-13L156.59-13 156.59 0 152.74 0 152.74-12.9Q152.74-16.3 152.39-18.28 152.04-20.25 150.91-21.13 149.79-22 147.54-22L147.54-22Q146.29-22 145.01-21.73 143.74-21.45 142.69-21.03 141.64-20.6 140.94-20.2L140.94-20.2 140.94 0ZM187.28 0.5L187.28 0.5Q186.18 0.5 184.66 0.43 183.13 0.35 181.58 0.2 180.03 0.05 178.83-0.05L178.83-0.05 178.83-35.85 182.73-35.85 182.73-23.8Q183.53-24.2 184.73-24.58 185.93-24.95 187.31-25.23 188.68-25.5 189.93-25.5L189.93-25.5Q193.33-25.5 195.36-24.23 197.38-22.95 198.26-20.18 199.13-17.4 199.13-12.9L199.13-12.9Q199.13-7.9 198.06-4.98 196.98-2.05 194.41-0.78 191.83 0.5 187.28 0.5ZM187.23-3L187.23-3Q190.63-3 192.31-4.03 193.98-5.05 194.56-7.25 195.13-9.45 195.13-12.9L195.13-12.9Q195.13-16.1 194.63-18.1 194.13-20.1 192.91-21.05 191.68-22 189.53-22L189.53-22Q188.33-22 187.03-21.78 185.73-21.55 184.61-21.23 183.48-20.9 182.73-20.6L182.73-20.6 182.73-3.25Q183.78-3.15 185.16-3.08 186.53-3 187.23-3ZM209.08 0L205.23 0 205.23-25 209.08-25 209.08 0ZM209.08-30.5L205.23-30.5 205.23-35 209.08-35 209.08-30.5ZM220.13 0L216.28 0 216.28-35.85 220.13-35.85 220.13-14.75 223.98-14.9 230.98-25 235.43-25 227.38-13.45 235.83 0 231.38 0 224.08-11.5 220.13-11.3 220.13 0ZM249.93 0.5L249.93 0.5Q245.73 0.5 243.4-0.95 241.08-2.4 240.15-5.35 239.23-8.3 239.23-12.8L239.23-12.8Q239.23-17.1 240.25-19.9 241.28-22.7 243.63-24.1 245.98-25.5 249.93-25.5L249.93-25.5Q253.93-25.5 256.28-24.1 258.63-22.7 259.65-19.9 260.68-17.1 260.68-12.8L260.68-12.8Q260.68-8.3 259.75-5.35 258.83-2.4 256.5-0.95 254.18 0.5 249.93 0.5ZM249.93-2.85L249.93-2.85Q252.83-2.85 254.28-3.88 255.73-4.9 256.2-7.1 256.68-9.3 256.68-12.8L256.68-12.8Q256.68-16.25 256.08-18.3 255.48-20.35 254.03-21.25 252.58-22.15 249.93-22.15L249.93-22.15Q247.33-22.15 245.85-21.25 244.38-20.35 243.78-18.3 243.18-16.25 243.18-12.8L243.18-12.8Q243.18-9.3 243.65-7.1 244.13-4.9 245.58-3.88 247.03-2.85 249.93-2.85ZM277.07 0L270.62 0 264.72-25 268.62-25 273.52-3.35 274.37-3.35 280.22-24.5 284.27-24.5 290.12-3.35 290.97-3.35 295.87-25 299.77-25 293.87 0 287.42 0 282.22-19.35 277.07 0ZM312.72 0.5L312.72 0.5Q311.57 0.5 309.95 0.35 308.32 0.2 306.72-0.03 305.12-0.25 303.87-0.45L303.87-0.45 304.07-3.8Q305.32-3.65 306.9-3.45 308.47-3.25 309.97-3.13 311.47-3 312.37-3L312.37-3Q314.42-3 315.77-3.38 317.12-3.75 317.82-4.65 318.52-5.55 318.52-7.2L318.52-7.2Q318.52-8.45 318-9.15 317.47-9.85 316.05-10.3 314.62-10.75 311.92-11.15L311.92-11.15Q309.12-11.6 307.25-12.28 305.37-12.95 304.47-14.3 303.57-15.65 303.57-18.15L303.57-18.15Q303.57-20.95 304.87-22.55 306.17-24.15 308.25-24.83 310.32-25.5 312.57-25.5L312.57-25.5Q313.97-25.5 315.65-25.35 317.32-25.2 318.92-24.98 320.52-24.75 321.67-24.55L321.67-24.55 321.57-21.2Q320.37-21.4 318.77-21.58 317.17-21.75 315.57-21.88 313.97-22 312.77-22L312.77-22Q311.27-22 310.07-21.68 308.87-21.35 308.17-20.55 307.47-19.75 307.47-18.3L307.47-18.3Q307.47-17.2 307.97-16.53 308.47-15.85 309.87-15.4 311.27-14.95 313.92-14.5L313.92-14.5Q317.02-14 318.9-13.25 320.77-12.5 321.62-11.15 322.47-9.8 322.47-7.35L322.47-7.35Q322.47-4.45 321.3-2.73 320.12-1 317.95-0.25 315.77 0.5 312.72 0.5ZM332.07 0L328.22 0 328.22-35.85 332.07-35.85 332.07-14.75 335.92-14.9 342.92-25 347.37-25 339.32-13.45 347.77 0 343.32 0 336.02-11.5 332.07-11.3 332.07 0ZM356.12 0L352.27 0 352.27-25 356.12-25 356.12 0ZM356.12-30.5L352.27-30.5 352.27-35 356.12-35 356.12-30.5Z" opacity="1" transform="matrix(1,0,0,1,0,0)" fill="#61777f" class="wordmark-text-0" data-fill-palette-color="primary" id="text-0"></path></svg></g></svg></g></svg></g></svg></g><g><svg viewBox="0 0 114.98922526398171 114.9876007093596" height="114.9876007093596" width="114.98922526398171"><g><svg xmlns="http://www.w3.org/2000/svg" xmlns:xlink="http://www.w3.org/1999/xlink" version="1.1" x="0" y="0" viewBox="14.61 14.61 70.782 70.781" enable-background="new 0 0 100 100" xml:space="preserve" height="114.9876007093596" width="114.98922526398171" class="icon-icon-0" data-fill-palette-color="accent" id="icon-0"><path d="M55.485 42.639L62.9 50 55.485 57.363 58.034 59.929 68.033 50 58.034 40.072zM41.967 40.072L31.967 50 41.967 59.93 44.515 57.364 37.101 50 44.516 42.639zM50.001 14.61C30.486 14.61 14.61 30.486 14.61 50S30.486 85.391 50.001 85.391 85.392 69.515 85.392 50C85.392 30.486 69.516 14.61 50.001 14.61M50.001 81.773C32.48 81.773 18.226 67.521 18.226 50 18.226 32.48 32.48 18.226 50.001 18.226S81.774 32.48 81.774 50 67.521 81.773 50.001 81.773" fill="#d388e5" data-fill-palette-color="accent"></path></svg></g></svg></g></svg></g><defs></defs></svg><rect width="395.52" height="87.31388887069518" fill="none" stroke="none" visibility="hidden"></rect></g></svg></g></svg>